:FULLY-SPECIFIED
:FORCE-ALL-JOINTS-BE-3DOF
:DEGREES
136
root 7.8642 16.8278 -26.2593 -7.94974 18.0067 0.175956
lfemur -8.74835 14.5927 -18.8176
ltibia 30.1514 0 0
lfoot -9.65487 -6.47299 0
ltoes 33.9792 0 0
rfemur -58.8316 -12.1728 4.16727
rtibia 57.7097 0 0
rfoot 12.5285 1.89426 0
rtoes 1.67799 0 0
lowerback 13.1632 -3.73088 -2.8129
upperback 4.13755 -5.17901 1.12217
thorax -2.80494 -2.5821 3.23858
lowerneck -11.5312 -3.53184 -0.184435
upperneck 1.49404 -4.80609 2.15737
head 2.58818 -2.3152 0.449051
lclavicle -4.52315e-014 6.42656e-015 0
lhumerus -41.2439 -21.4417 97.7211
lradius 49.4794 0 0
lwrist 11.6981 0 0
lhand 15.966 11.3713 0
lfingers 7.12502 0 0
lthumb 40.5784 35.0246 0
rclavicle -4.52315e-014 6.42656e-015 0
rhumerus -45.7229 -7.96925 -60.0299
rradius 73.5614 0 0
rwrist -3.51685 0 0
rhand -0.49589 -15.5078 0
rfingers 7.12502 0 0
rthumb 25.0933 -133.545 0
137
root 7.83825 16.8095 -26.2381 -7.61973 18.7618 0.193325
lfemur -9.43515 15.3837 -18.9484
ltibia 30.5781 0 0
lfoot -9.3529 -5.71969 0
ltoes 33.8595 0 0
rfemur -57.8323 -11.9889 3.8733
rtibia 58.5571 0 0
rfoot 12.7523 0.731277 0
rtoes 3.17773 0 0
lowerback 12.8628 -3.88799 -2.81772
upperback 4.01369 -5.38503 1.06778
thorax -2.7685 -2.68456 3.18154
lowerneck -11.4682 -3.68842 -0.31883
upperneck 1.5172 -5.00433 2.29476
head 2.598 -2.41063 0.505879
lclavicle -4.21883e-014 6.2303e-015 0
lhumerus -41.4019 -22.149 98.2967
lradius 49.5583 0 0
lwrist 11.6789 0 0
lhand 16.8044 11.8052 0
lfingers 7.12502 0 0
lthumb 41.3501 35.0938 0
rclavicle -4.21883e-014 6.2303e-015 0
rhumerus -46.188 -8.43186 -60.7916
rradius 74.5583 0 0
rwrist -4.04039 0 0
rhand -1.16899 -15.4692 0
rfingers 7.12502 0 0
rthumb 24.4459 -143.54 0
138
root 7.81047 16.7904 -26.2171 -7.2687 19.528 0.207882
lfemur -10.1572 16.1934 -19.0771
ltibia 31.0249 0 0
lfoot -9.04992 -4.93975 0
ltoes 33.7292 0 0
rfemur -56.7769 -11.7947 3.58175
rtibia 59.4091 0 0
rfoot 12.9557 -0.473919 0
rtoes 4.71534 0 0
lowerback 12.5435 -4.04484 -2.81891
upperback 3.88257 -5.59051 1.01098
thorax -2.72914 -2.78674 3.11965
lowerneck -11.4028 -3.84902 -0.454401
upperneck 1.53713 -5.2078 2.43551
head 2.60661 -2.50864 0.563799
lclavicle -3.90383e-014 6.02778e-015 0
lhumerus -41.5662 -22.8696 98.8854
lradius 49.6369 0 0
lwrist 11.6586 0 0
lhand 17.6511 12.2467 0
lfingers 7.12502 0 0
lthumb 42.1289 35.1632 0
rclavicle -3.90383e-014 6.02778e-015 0
rhumerus -46.6582 -8.90149 -61.5888
rradius 75.5635 0 0
rwrist -4.57286 0 0
rhand -1.8765 -15.4358 0
rfingers 7.12502 0 0
rthumb 23.7655 -153.777 0
139
root 7.78096 16.7708 -26.1963 -6.89851 20.3022 0.219974
lfemur -10.9098 17.0179 -19.2032
ltibia 31.4886 0 0
lfoot -8.74752 -4.13704 0
ltoes 33.5898 0 0
rfemur -55.6708 -11.5917 3.29268
rtibia 60.2632 0 0
rfoot 13.1384 -1.71503 0
rtoes 6.28645 0 0
lowerback 12.2068 -4.20103 -2.81669
upperback 3.74486 -5.79494 0.951803
thorax -2.68707 -2.8884 3.05305
lowerneck -11.3353 -4.01286 -0.590537
upperneck 1.55408 -5.41556 2.57907
head 2.61411 -2.60875 0.622573
lclavicle -3.57953e-014 5.81775e-015 0
lhumerus -41.7366 -23.6015 99.4858
lradius 49.715 0 0
lwrist 11.6377 0 0
lhand 18.5043 12.6948 0
lfingers 7.12502 0 0
lthumb 42.9134 35.2328 0
rclavicle -3.57953e-014 5.81775e-015 0
rhumerus -47.1306 -9.3772 -62.4156
rradius 76.5737 0 0
rwrist -5.113 0 0
rhand -2.61553 -15.4085 0
rfingers 7.12502 0 0
rthumb 23.0547 -164.227 0
140
root 7.74981 16.7505 -26.1756 -6.51101 21.0812 0.229946
lfemur -11.6881 17.8538 -19.3257
ltibia 31.9658 0 0
lfoot -8.44726 -3.31541 0
ltoes 33.4428 0 0
rfemur -54.5198 -11.3814 3.00616
rtibia 61.117 0 0
rfoot 13.3004 -2.98578 0
rtoes 7.88675 0 0
lowerback 11.8545 -4.35615 -2.81122
upperback 3.60123 -5.99779 0.89027
thorax -2.64246 -2.98927 2.98189
lowerneck -11.2661 -4.17917 -0.726625
upperneck 1.56833 -5.62663 2.72489
head 2.62058 -2.7105 0.681964
lclavicle -3.24729e-014 5.59897e-015 0
lhumerus -41.9128 -24.3431 100.096
lradius 49.7927 0 0
lwrist 11.6168 0 0
lhand 19.3624 13.1486 0
lfingers 7.12502 0 0
lthumb 43.7019 35.3027 0
rclavicle -3.24729e-014 5.59897e-015 0
rhumerus -47.6026 -9.85802 -63.2664
rradius 77.5853 0 0
rwrist -5.65957 0 0
rhand -3.38315 -15.3885 0
rfingers 7.12502 0 0
rthumb 22.3164 -174.859 0
141
root 7.71713 16.7297 -26.1551 -6.10804 21.862 0.238147
lfemur -12.4876 18.6973 -19.444
ltibia 32.4534 0 0
lfoot -8.15072 -2.4787 0
ltoes 33.2896 0 0
rfemur -53.3294 -11.1652 2.72225
rtibia 61.9681 0 0
rfoot 13.4415 -4.27985 0
rtoes 9.51189 0 0
lowerback 11.488 -4.50981 -2.80271
upperback 3.45236 -6.19855 0.826408
thorax -2.59551 -3.08911 2.90632
lowerneck -11.1954 -4.34718 -0.862055
upperneck 1.58015 -5.84005 2.87243
head 2.62613 -2.8134 0.741732
lclavicle -2.90851e-014 5.37018e-015 0
lhumerus -42.0945 -25.0926 100.714
lradius 49.8701 0 0
lwrist 11.5964 0 0
lhand 20.2237 13.6071 0
lfingers 7.12502 0 0
lthumb 44.493 35.3727 0
rclavicle -2.90851e-014 5.37018e-015 0
rhumerus -48.0713 -10.343 -64.1352
rradius 78.5949 0 0
rwrist -6.21129 0 0
rhand -4.17646 -15.3769 0
rfingers 7.12502 0 0
rthumb 21.5534 -185.642 0
142
root 7.68302 16.7083 -26.1348 -5.69144 22.6413 0.244921
lfemur -13.3035 19.5447 -19.5573
ltibia 32.948 0 0
lfoot -7.85948 -1.63078 0
ltoes 33.1317 0 0
rfemur -52.1053 -10.9445 2.44102
rtibia 62.814 0 0
rfoot 13.5616 -5.59098 0
rtoes 11.1575 0 0
lowerback 11.109 -4.66161 -2.79134
upperback 3.29892 -6.39669 0.760244
thorax -2.54641 -3.18764 2.82649
lowerneck -11.1237 -4.51612 -0.996215
upperneck 1.5898 -6.05486 3.02111
head 2.63083 -2.91698 0.80164
lclavicle -2.56453e-014 5.13014e-015 0
lhumerus -42.2816 -25.8483 101.339
lradius 49.947 0 0
lwrist 11.5771 0 0
lhand 21.0865 14.0693 0
lfingers 7.12502 0 0
lthumb 45.285 35.4429 0
rclavicle -2.56453e-014 5.13014e-015 0
rhumerus -48.5339 -10.8311 -65.0162
rradius 79.599 0 0
rwrist -6.76692 0 0
rhand -4.99256 -15.3748 0
rfingers 7.12502 0 0
rthumb 20.7685 -196.546 0
143
root 7.64758 16.6864 -26.1147 -5.26308 23.416 0.250616
lfemur -14.1311 20.3923 -19.6649
ltibia 33.4466 0 0
lfoot -7.57512 -0.775497 0
ltoes 32.9706 0 0
rfemur -50.8531 -10.7208 2.16254
rtibia 63.6524 0 0
rfoot 13.6603 -6.91286 0
rtoes 12.8194 0 0
lowerback 10.7191 -4.81115 -2.77731
upperback 3.14158 -6.59169 0.691803
thorax -2.49535 -3.28462 2.74253
lowerneck -11.0511 -4.68521 -1.12849
upperneck 1.59756 -6.27009 3.1704
head 2.63478 -3.02077 0.86145
lclavicle -2.21674e-014 4.87761e-015 0
lhumerus -42.4737 -26.6084 101.969
lradius 50.0235 0 0
lwrist 11.5594 0 0
lhand 21.9491 14.5343 0
lfingers 7.12502 0 0
lthumb 46.0765 35.5133 0
rclavicle -2.21674e-014 4.87761e-015 0
rhumerus -48.9877 -11.3215 -65.9036
rradius 80.5941 0 0
rwrist -7.3252 0 0
rhand -5.82852 -15.3833 0
rfingers 7.12502 0 0
rthumb 19.9645 -207.54 0
144
root 7.61092 16.6641 -26.0949 -4.82478 24.1831 0.255579
lfemur -14.9657 21.2365 -19.7659
ltibia 33.9458 0 0
lfoot -7.29922 0.0832937 0
ltoes 32.8077 0 0
rfemur -49.5785 -10.4954 1.88687
rtibia 64.4808 0 0
rfoot 13.7376 -8.2392 0
rtoes 14.493 0 0
lowerback 10.3197 -4.95803 -2.76081
upperback 2.98102 -6.78305 0.621112
thorax -2.44252 -3.37978 2.65461
lowerneck -10.9781 -4.85368 -1.25828
upperneck 1.6037 -6.48478 3.31975
head 2.63808 -3.12429 0.920922
lclavicle -1.86651e-014 4.61133e-015 0
lhumerus -42.6705 -27.3711 102.602
lradius 50.0996 0 0
lwrist 11.5439 0 0
lhand 22.8098 15.0011 0
lfingers 7.12502 0 0
lthumb 46.866 35.5838 0
rclavicle -1.86651e-014 4.61133e-015 0
rhumerus -49.43 -11.8132 -66.7916
rradius 81.5768 0 0
rwrist -7.88486 0 0
rhand -6.68145 -15.4035 0
rfingers 7.12502 0 0
rthumb 19.1441 -218.594 0
